<?xml version="1.0" encoding="UTF-8"?>
<svg version="1.1" xmlns="http://www.w3.org/2000/svg" width="150" height="150">
<path d="M0 0 C14.01930456 0 14.01930456 0 20.75 1.625 C21.51022461 1.80393799 22.27044922 1.98287598 23.05371094 2.16723633 C42.70550648 7.00268747 59.83690972 16.32943743 74 31 C77.20299264 29.58356548 79.36084202 27.85872218 81.875 25.4375 C100.83697207 8.25614146 124.69041476 0 150 0 C150 33.66 150 67.32 150 102 C100.5 102 51 102 0 102 C0 68.34 0 34.68 0 0 Z " fill="#5D20E4" transform="translate(0,24)"/>
<path d="M0 0 C14.01930456 0 14.01930456 0 20.75 1.625 C21.51022461 1.80393799 22.27044922 1.98287598 23.05371094 2.16723633 C41.75833215 6.76962912 56.61162719 15.24556105 71 28 C72.17175781 28.96486328 72.17175781 28.96486328 73.3671875 29.94921875 C75 32 75 32 74.97265625 34.48046875 C73.85976993 37.36324656 72.51190976 39.02699571 70.4375 41.3125 C56.07775831 58.58543883 51.97514474 80.27340788 50 102 C33.5 102 17 102 0 102 C0 68.34 0 34.68 0 0 Z " fill="#01F7B1" transform="translate(0,24)"/>
<path d="M0 0 C9.57174123 3.85410819 15.1530923 18.04744989 19.16308594 26.99658203 C24.44463687 39.63964123 26 52.42263968 26 66 C9.5 66 -7 66 -24 66 C-24 52.95290522 -24 52.95290522 -22.875 46.8125 C-22.74375732 46.09473389 -22.61251465 45.37696777 -22.47729492 44.63745117 C-19.23275599 28.26426436 -11.84384429 11.91786832 0 0 Z " fill="#0121A0" transform="translate(74,60)"/>
</svg>
